<?xml version="1.0" standalone="no"?>
<!DOCTYPE svg PUBLIC "-//W3C//DTD SVG 20010904//EN"
 "http://www.w3.org/TR/2001/REC-SVG-20010904/DTD/svg10.dtd">
<svg version="1.0" xmlns="http://www.w3.org/2000/svg"
 width="4096.000000pt" height="4096.000000pt" viewBox="0 0 4096.000000 4096.000000"
 preserveAspectRatio="xMidYMid meet">
<metadata>
Created by potrace 1.13, written by Peter Selinger 2001-2015
</metadata>
<g transform="translate(0.000000,4096.000000) scale(0.100000,-0.100000)"
fill="#000000" stroke="none">
<path d="M19815 40499 c-4667 -159 -9105 -1937 -12600 -5049 -546 -486 -1159
-1098 -1640 -1640 -1508 -1696 -2714 -3626 -3572 -5715 -400 -975 -724 -1993
-968 -3040 -57 -245 -194 -915 -216 -1060 -15 -102 -21 -112 -69 -126 -22 -7
-40 -14 -40 -15 0 -2 16 -19 36 -37 l37 -33 -36 -235 c-98 -635 -168 -1335
-207 -2069 -18 -329 -24 -1265 -11 -1625 32 -865 102 -1614 226 -2420 715
-4616 3037 -8837 6570 -11941 1647 -1447 3542 -2625 5565 -3459 3128 -1291
6538 -1760 9940 -1370 1591 183 3190 569 4700 1135 1000 374 2054 874 2996
1420 1943 1126 3699 2589 5174 4310 1439 1679 2606 3618 3415 5675 1197 3042
1626 6346 1250 9625 -332 2887 -1291 5659 -2823 8155 -168 275 -511 793 -707
1070 -1184 1673 -2639 3176 -4265 4407 -3498 2648 -7733 4063 -12115 4046
-225 0 -513 -5 -640 -9z m1495 -680 c3729 -145 7365 -1391 10407 -3566 351
-250 747 -554 736 -563 -17 -15 -7667 -2861 -7678 -2856 -6 2 -913 1564 -2014
3470 -1101 1907 -2011 3482 -2022 3500 l-20 34 168 -4 c92 -3 283 -9 423 -15z
m-1598 -787 c-3829 -6683 -3614 -6311 -3641 -6300 -23 8 -7394 2633 -7731
2753 l-34 12 204 163 c1495 1190 3203 2171 5000 2870 1900 740 3936 1176 5975
1280 301 15 322 16 512 18 l172 2 -457 -798z m2670 -3040 l1927 -3337 -27 -13
c-49 -22 -3867 -1443 -3882 -1444 -8 -1 -874 304 -1923 678 -1494 532 -1907
682 -1904 694 3 10 3529 6172 3864 6753 2 4 7 7 11 7 4 -1 874 -1502 1934
-3338z m10705 -812 c1537 -1316 2898 -2922 3952 -4665 1092 -1803 1885 -3780
2326 -5795 30 -140 58 -266 61 -279 3 -17 1 -22 -8 -19 -7 3 -1781 634 -3943
1403 -2161 769 -3934 1401 -3938 1405 -5 4 302 1823 682 4043 380 2220 691
4039 691 4042 0 14 24 -4 177 -135z m-711 -67 c-3 -10 -301 -1748 -662 -3863
-362 -2115 -658 -3846 -659 -3848 -1 -1 -892 315 -1980 702 -1606 571 -1982
709 -1995 728 -9 12 -475 817 -1035 1787 -822 1424 -1016 1766 -1004 1774 15
9 7318 2735 7332 2736 5 1 6 -7 3 -16z m-23848 -4060 c397 -2204 719 -4010
714 -4014 -4 -4 -1733 -651 -3842 -1437 -2109 -787 -3842 -1433 -3852 -1437
-13 -5 -8 34 37 252 764 3711 2585 7085 5278 9775 328 328 907 867 932 868 7
0 309 -1655 733 -4007z m3554 2581 c2064 -734 3756 -1338 3759 -1342 3 -4
-450 -801 -1007 -1772 -557 -971 -1014 -1769 -1016 -1773 -5 -12 -4092 -1535
-4099 -1528 -3 3 -318 1736 -698 3851 -381 2115 -695 3857 -698 3873 -3 15 -3
27 0 27 4 0 1695 -601 3759 -1336z m13393 -2998 c498 -862 905 -1569 903
-1570 -2 -2 -3465 1230 -5142 1828 -100 36 -108 41 -86 50 89 40 3406 1271
3412 1267 4 -3 415 -712 913 -1575z m-7441 880 c890 -317 1625 -580 1632 -584
7 -4 -1082 -415 -2558 -965 -1413 -527 -2571 -957 -2573 -955 -2 2 398 704
888 1559 l892 1556 50 -17 c27 -10 779 -277 1669 -594z m5538 -1972 c1740
-619 3171 -1131 3181 -1137 14 -10 3385 -5834 3436 -5937 17 -35 15 -51 -590
-3578 -333 -1949 -610 -3547 -615 -3552 -5 -5 -1190 -1008 -2634 -2229 l-2625
-2221 -3327 0 -3328 0 -2582 2146 c-1421 1181 -2589 2152 -2596 2159 -8 7
-264 1408 -642 3504 l-629 3492 1751 3057 c963 1681 1758 3065 1767 3074 11
11 6226 2339 6268 2348 1 0 1426 -507 3165 -1126z m5650 -2010 c953 -339 1736
-620 1741 -623 5 -5 -612 -3656 -627 -3706 -1 -5 -21 22 -43 60 -22 39 -660
1143 -1418 2455 -757 1312 -1383 2395 -1391 2408 -8 12 -10 22 -5 22 6 0 790
-277 1743 -616z m-15810 504 c-11 -18 -669 -1167 -1462 -2553 -794 -1386
-1448 -2525 -1454 -2532 -8 -9 -101 489 -350 1872 -187 1037 -337 1887 -334
1891 4 4 3591 1346 3616 1353 2 1 -5 -14 -16 -31z m21915 -2679 c2125 -756
3862 -1377 3860 -1381 -3 -8 -6240 -5287 -6247 -5288 -5 0 -244 413 -1696
2930 l-522 905 359 2095 c197 1152 359 2101 359 2109 0 7 6 11 13 9 6 -2 1750
-623 3874 -1379z m-25982 1159 c3 -13 176 -972 385 -2133 l380 -2110 -370
-645 c-1487 -2597 -1797 -3135 -1807 -3135 -6 0 -1416 1168 -3132 2595 -2494
2073 -3118 2596 -3104 2603 32 14 7628 2846 7635 2846 4 1 10 -9 13 -21z
m30229 -2885 c23 -74 129 -913 166 -1303 61 -667 75 -987 75 -1800 0 -716 -5
-904 -41 -1395 -182 -2557 -861 -5020 -2010 -7301 -147 -292 -387 -740 -408
-762 -10 -10 -433 715 -2090 3584 -1907 3301 -2076 3598 -2062 3613 31 30
6351 5379 6358 5380 4 1 9 -7 12 -16z m-35006 -2992 l3119 -2594 -487 -851
c-2664 -4651 -3518 -6138 -3526 -6139 -10 -2 -136 224 -316 568 -469 896 -884
1884 -1211 2880 -846 2579 -1137 5354 -847 8080 24 222 79 664 85 683 4 10 13
7 34 -10 16 -13 1433 -1190 3149 -2617z m27016 -580 c538 -931 974 -1697 969
-1701 -45 -43 -2967 -2509 -2969 -2507 -2 2 224 1330 501 2951 278 1622 505
2953 505 2959 0 7 3 7 8 2 5 -6 449 -772 986 -1704z m-20815 -1446 c288 -1598
522 -2908 519 -2910 -8 -8 -2963 2456 -2962 2470 2 16 1906 3344 1914 3345 3
0 241 -1307 529 -2905z m24078 -4203 l2031 -3517 -4071 -3 c-2238 -1 -4071 -1
-4073 0 -2 3 711 4179 717 4197 5 14 3341 2839 3354 2840 6 0 924 -1582 2042
-3517z m-25094 1918 c975 -810 1680 -1403 1682 -1415 3 -11 165 -909 360
-1995 195 -1086 358 -1987 361 -2002 l6 -28 -4007 0 c-2275 0 -4005 4 -4003 9
11 30 3914 6831 3919 6829 3 -2 760 -631 1682 -1398z m18792 -3594 c-173
-1011 -316 -1840 -318 -1842 -2 -2 -845 -3 -1872 -2 l-1869 3 2184 1848 c1202
1017 2186 1845 2187 1840 2 -5 -139 -836 -312 -1847z m-14392 -63 c1162 -965
2119 -1761 2127 -1769 12 -12 -249 -14 -1805 -12 l-1819 3 -318 1760 c-174
968 -317 1766 -318 1773 0 7 5 10 11 6 6 -3 961 -796 2122 -1761z m-1899
-2300 c29 -143 1425 -7917 1422 -7920 -11 -12 -670 258 -1086 444 -273 122
-839 398 -1103 539 -1549 823 -2925 1807 -4202 3005 -229 215 -737 725 -936
939 -834 902 -1551 1835 -2202 2868 l-97 152 4099 0 4099 0 6 -27z m6210
-1284 l1578 -1312 -24 -22 c-12 -13 -1344 -1140 -2958 -2505 -2905 -2458
-2935 -2483 -2943 -2454 -10 36 -1367 7572 -1367 7591 0 11 339 13 2068 13
l2069 0 1577 -1311z m4666 1297 c-8 -7 -620 -525 -1359 -1150 -1191 -1007
-1346 -1135 -1360 -1123 -9 8 -619 515 -1356 1127 -737 612 -1351 1123 -1365
1136 l-25 24 2740 0 c2327 0 2737 -2 2725 -14z m5010 -2 c0 -23 -1288 -7553
-1297 -7585 -8 -26 -122 68 -3018 2476 -1655 1376 -3009 2505 -3008 2509 1 4
695 594 1543 1312 l1541 1304 2120 0 c1958 0 2119 -1 2119 -16z m8809 -6 c-6
-12 -62 -101 -124 -198 -974 -1529 -2140 -2899 -3485 -4096 -1512 -1345 -3199
-2429 -5065 -3254 -306 -136 -971 -404 -985 -398 -5 2 1350 7943 1359 7966 1
1 1871 2 4156 2 l4156 0 -12 -22z m-13350 -5558 l3121 -2595 -37 -13 c-21 -7
-141 -46 -268 -87 -2040 -653 -4145 -958 -6312 -914 -1769 36 -3477 303 -5153
805 -246 74 -672 213 -681 223 -4 3 1380 1179 3074 2612 l3081 2607 27 -22
c15 -11 1432 -1189 3148 -2616z"/>
<path d="M20501 27617 c-61 -74 -115 -477 -166 -1236 -8 -124 -15 -239 -15
-256 l0 -31 -201 -13 c-728 -44 -1430 -224 -2058 -527 -96 -46 -177 -84 -182
-84 -4 0 -26 30 -50 68 -23 37 -119 180 -212 317 -411 603 -624 862 -670 816
-8 -8 -7 -29 2 -74 30 -144 156 -440 417 -980 90 -187 164 -342 164 -345 0 -4
-46 -36 -102 -71 -183 -117 -402 -282 -628 -476 -58 -49 -349 -332 -647 -629
l-542 -539 -283 136 c-460 220 -717 330 -866 368 -138 35 -146 9 -29 -105 117
-115 384 -315 771 -576 l138 -93 -1386 -1386 -1386 -1386 1389 -1389 1389
-1389 -196 -135 c-517 -353 -802 -581 -802 -640 0 -19 5 -22 38 -22 20 0 89
18 152 39 186 63 324 124 953 423 l127 61 548 -544 c661 -657 807 -786 1193
-1045 l187 -125 -168 -347 c-387 -801 -500 -1132 -350 -1020 94 69 378 449
720 963 73 110 134 202 136 204 2 2 83 -33 181 -79 686 -319 1379 -492 2106
-526 l147 -7 0 -32 c0 -17 7 -132 15 -256 50 -752 108 -1182 165 -1234 15 -14
18 -13 33 3 58 64 123 577 167 1322 6 102 13 191 15 198 3 8 25 12 62 12 77 0
307 24 478 50 586 87 1194 284 1717 558 70 36 129 64 131 62 2 -3 69 -102 147
-220 432 -649 732 -1040 798 -1040 19 0 22 6 22 41 0 110 -197 573 -509 1197
-61 122 -111 226 -111 230 0 5 46 40 103 79 351 243 501 377 1162 1035 l581
578 339 -164 c365 -176 551 -260 732 -332 468 -185 393 -50 -215 385 -99 70
-269 188 -377 261 l-198 132 1357 1357 1356 1356 -1350 1350 c-742 742 -1350
1352 -1350 1355 0 3 35 28 77 55 133 86 502 343 638 444 253 189 380 309 360
340 -32 53 -403 -92 -1085 -425 l-274 -134 -561 558 c-308 307 -598 592 -645
633 -182 162 -408 338 -567 444 -40 26 -73 49 -73 50 0 1 74 152 164 336 268
547 414 880 456 1044 36 141 11 149 -104 33 -131 -134 -346 -428 -676 -923
-95 -143 -176 -264 -180 -269 -5 -4 -57 17 -117 48 -676 355 -1452 577 -2171
622 -68 4 -115 11 -117 18 -2 6 -11 126 -20 266 -53 859 -127 1337 -194 1257z
m409 -2092 c918 -92 1786 -430 2505 -974 256 -193 370 -305 2223 -2155 l1882
-1881 -1887 -1886 c-1290 -1289 -1928 -1919 -2013 -1990 -495 -408 -1003 -693
-1593 -894 -783 -267 -1632 -333 -2457 -189 -748 129 -1489 449 -2098 903
-276 205 -355 282 -2250 2175 l-1882 1881 1817 1818 c1000 1000 1871 1866
1936 1925 847 764 1893 1207 3033 1281 186 13 593 5 784 -14z"/>
<path d="M20224 23979 c-475 -28 -925 -150 -1349 -364 -291 -146 -519 -301
-762 -517 -331 -294 -634 -700 -824 -1105 -292 -625 -393 -1323 -289 -2006
229 -1503 1423 -2689 2925 -2906 859 -125 1710 66 2434 546 262 174 581 465
775 708 440 552 701 1207 757 1900 22 274 3 645 -47 915 -244 1332 -1264 2411
-2583 2734 -332 82 -700 116 -1037 95z m196 -603 l0 -154 -112 -6 c-271 -16
-487 -57 -728 -136 -441 -145 -836 -400 -1143 -738 -373 -410 -603 -893 -688
-1443 -32 -205 -32 -571 -1 -774 114 -734 484 -1355 1068 -1791 467 -349 1027
-534 1614 -534 428 0 814 90 1196 280 286 141 499 293 720 514 222 222 374
435 514 721 169 342 259 686 277 1059 l6 136 145 0 145 0 -6 -152 c-27 -642
-278 -1280 -705 -1788 -96 -115 -306 -320 -422 -413 -411 -331 -902 -543
-1450 -628 -124 -20 -186 -23 -425 -23 -293 -1 -362 5 -597 50 -609 117 -1200
449 -1621 909 -417 457 -675 997 -767 1610 -27 177 -37 529 -21 700 55 580
252 1093 595 1552 461 617 1158 1039 1920 1163 148 24 277 37 399 39 l87 1 0
-154z m365 -491 c494 -77 953 -305 1319 -654 102 -98 246 -272 336 -408 237
-358 375 -769 397 -1191 l6 -123 -129 3 -129 3 -6 115 c-17 299 -89 576 -220
839 -330 667 -968 1108 -1718 1191 -140 16 -448 8 -581 -15 -950 -160 -1671
-901 -1795 -1843 -17 -130 -20 -418 -5 -542 102 -842 670 -1539 1467 -1799
214 -70 442 -111 626 -111 l77 0 0 -122 0 -121 -115 7 c-345 19 -639 95 -940
241 -241 118 -453 271 -650 469 -351 354 -577 793 -665 1297 -28 158 -38 469
-21 631 87 812 577 1524 1303 1894 283 143 559 224 883 258 87 9 464 -3 560
-19z m-155 -546 c618 -76 1137 -434 1424 -981 251 -478 275 -1070 65 -1568
-111 -261 -292 -510 -501 -687 -308 -262 -700 -421 -1080 -440 l-128 -6 0 95
0 95 125 11 c161 15 252 34 398 82 575 191 993 674 1114 1285 28 141 25 454
-5 603 -139 686 -666 1203 -1348 1323 -140 24 -383 29 -509 10 -356 -55 -664
-206 -919 -451 -278 -269 -452 -607 -501 -977 -8 -59 -15 -134 -15 -165 l0
-58 -95 0 -95 0 0 64 c0 154 53 426 115 591 44 117 124 269 200 382 289 426
761 718 1275 788 118 16 368 18 480 4z m43 -515 c401 -75 759 -345 941 -711
103 -206 140 -366 139 -603 0 -177 -12 -257 -60 -405 -66 -203 -173 -376 -328
-530 -192 -192 -416 -312 -695 -372 -117 -25 -390 -25 -508 1 -410 88 -743
340 -930 703 -85 165 -128 322 -147 531 l-7 72 71 0 71 0 0 -49 c0 -129 55
-338 125 -480 159 -317 433 -535 795 -632 109 -30 363 -37 484 -15 362 69 651
269 831 576 345 590 120 1356 -491 1667 -159 81 -350 133 -490 133 l-54 0 0
71 0 71 88 -7 c48 -4 122 -13 165 -21z"/>
</g>
</svg>
